<?xml version="1.0" encoding="utf-8"?>
<!-- Generator: Adobe Illustrator 16.0.0, SVG Export Plug-In . SVG Version: 6.00 Build 0)  -->
<!DOCTYPE svg PUBLIC "-//W3C//DTD SVG 1.1//EN" "http://www.w3.org/Graphics/SVG/1.1/DTD/svg11.dtd">
<svg version="1.1" id="Layer_1" xmlns="http://www.w3.org/2000/svg" xmlns:xlink="http://www.w3.org/1999/xlink" x="0px" y="0px"
	 width="595.279px" height="850.391px" viewBox="0 0 595.279 850.391" enable-background="new 0 0 595.279 850.391"
	 xml:space="preserve">
<path fill="#FFFFFF" d="M531.5,127.555H63.78C28.555,127.555,0,156.11,0,191.335v467.72c0,35.226,28.555,63.78,63.779,63.78h182.371
	V520.453H162.44v-95.258h83.711v-72.603c0-82.582,49.164-128.198,124.464-128.198c36.062,0,73.772,6.431,73.772,6.431v81.054h-41.55
	c-40.938,0-53.708,25.406-53.708,51.462v61.854h91.392l-14.616,95.258h-76.775v202.382H531.5c35.225,0,63.779-28.555,63.779-63.78
	v-467.72C595.28,156.11,566.725,127.555,531.5,127.555z"/>
</svg>
