<?xml version="1.0" encoding="utf-8"?>
<!-- Generator: Adobe Illustrator 16.0.0, SVG Export Plug-In . SVG Version: 6.00 Build 0)  -->
<!DOCTYPE svg PUBLIC "-//W3C//DTD SVG 1.1//EN" "http://www.w3.org/Graphics/SVG/1.1/DTD/svg11.dtd">
<svg version="1.1" id="Layer_1" xmlns="http://www.w3.org/2000/svg" xmlns:xlink="http://www.w3.org/1999/xlink" x="0px" y="0px"
	 width="595.279px" height="850.391px" viewBox="0 0 595.279 850.391" enable-background="new 0 0 595.279 850.391"
	 xml:space="preserve">
<g>
	<circle fill="#FFFFFF" cx="297.14" cy="409.695" r="83"/>
	<path fill="#FFFFFF" d="M531.501,127.555H63.78C28.555,127.555,0,156.11,0,191.335v467.72c0,35.227,28.556,63.78,63.779,63.78
		H246.15h48.754c-20.334-26.121-172.762-224.938-172.762-315.14c0-96.65,78.35-175,175-175c96.649,0,175.001,78.35,175.001,175
		c0,90.202-152.429,289.019-172.763,315.14h49.749h182.371c35.225,0,63.778-28.555,63.778-63.78v-467.72
		C595.279,156.11,566.724,127.555,531.501,127.555z"/>
	<path fill="#FFFFFF" d="M297.142,725.695c0,0,0.785-0.994,2.238-2.86h-4.477C296.357,724.701,297.142,725.695,297.142,725.695z"/>
</g>
</svg>
