<?xml version="1.0" encoding="utf-8"?>
<!-- Generator: Adobe Illustrator 16.0.0, SVG Export Plug-In . SVG Version: 6.00 Build 0)  -->
<!DOCTYPE svg PUBLIC "-//W3C//DTD SVG 1.1//EN" "http://www.w3.org/Graphics/SVG/1.1/DTD/svg11.dtd">
<svg version="1.1" id="Layer_1" xmlns="http://www.w3.org/2000/svg" xmlns:xlink="http://www.w3.org/1999/xlink" x="0px" y="0px"
	 width="595.279px" height="850.391px" viewBox="0 0 595.279 850.391" enable-background="new 0 0 595.279 850.391"
	 xml:space="preserve">
<path fill="#FFFFFF" d="M531.501,127.555H63.78C28.555,127.555,0,156.11,0,191.335v467.72c0,35.229,28.558,63.78,63.779,63.78
	H246.15h102.981h182.369c35.227,0,63.778-28.555,63.778-63.78v-467.72C595.279,156.11,566.724,127.555,531.501,127.555z
	 M150.831,280.698h299.612c29.137,0,53.128,21.984,56.32,50.267L298.64,420.698L94.207,334.652
	C95.637,304.614,120.439,280.698,150.831,280.698z M507.136,525.938c0,31.312-25.381,56.693-56.693,56.693H150.831
	c-31.311,0-56.692-25.381-56.692-56.693V367.208l204.648,86.25l208.35-90.24V525.938z"/>
</svg>
