<?xml version="1.0" encoding="utf-8"?>
<!-- Generator: Adobe Illustrator 16.0.0, SVG Export Plug-In . SVG Version: 6.00 Build 0)  -->
<!DOCTYPE svg PUBLIC "-//W3C//DTD SVG 1.1//EN" "http://www.w3.org/Graphics/SVG/1.1/DTD/svg11.dtd">
<svg version="1.1" id="Layer_1" xmlns="http://www.w3.org/2000/svg" xmlns:xlink="http://www.w3.org/1999/xlink" x="0px" y="0px"
	 width="595.279px" height="850.391px" viewBox="0 0 595.279 850.391" enable-background="new 0 0 595.279 850.391"
	 xml:space="preserve">
<path fill="#FFFFFF" d="M531.501,127.555H63.78C28.555,127.555,0,156.11,0,191.335v467.72c0,35.228,28.557,63.78,63.779,63.78
	H246.15h102.98h182.37c35.226,0,63.778-28.555,63.778-63.78v-467.72C595.279,156.11,566.724,127.555,531.501,127.555z
	 M503.501,534.765l-19.533,84.642c-2.047,8.867-9.945,15.145-19.044,15.139c-208.431,0-377.632-168.876-377.632-377.631
	c-0.002-9.096,6.274-16.989,15.138-19.036l84.642-19.533c9.209-2.093,18.606,2.657,22.381,11.313l39.065,91.152
	c3.426,7.998,1.134,17.299-5.616,22.789l-49.32,40.367c29.87,63.354,80.854,114.337,144.207,144.208l40.367-49.32
	c5.5-6.735,14.789-9.024,22.789-5.615l91.152,39.064C500.795,516.086,505.577,525.512,503.501,534.765z"/>
</svg>
