<?xml version="1.0" encoding="utf-8"?>
<!-- Generator: Adobe Illustrator 16.0.0, SVG Export Plug-In . SVG Version: 6.00 Build 0)  -->
<!DOCTYPE svg PUBLIC "-//W3C//DTD SVG 1.1//EN" "http://www.w3.org/Graphics/SVG/1.1/DTD/svg11.dtd">
<svg version="1.1" id="Layer_1" xmlns="http://www.w3.org/2000/svg" xmlns:xlink="http://www.w3.org/1999/xlink" x="0px" y="0px"
	 width="595.279px" height="850.391px" viewBox="0 0 595.279 850.391" enable-background="new 0 0 595.279 850.391"
	 xml:space="preserve">
<g>
	<path fill="#FFFFFF" d="M531.5,127.555H63.78C28.569,127.555,0,156.123,0,191.335v467.72c0,35.213,28.568,63.78,63.779,63.78H531.5
		c35.212,0,63.779-28.567,63.779-63.78v-467.72C595.28,156.123,566.712,127.555,531.5,127.555z M529.374,542.656
		c-5.581,20.994-21.925,36.807-42.786,42.388c-37.604,10.231-188.948,10.231-188.948,10.231s-151.345,0-188.948-10.099
		c-20.861-5.581-37.205-21.393-42.785-42.388c-10.099-38.002-10.099-117.195-10.099-117.195s0-79.327,10.099-117.196
		c5.58-20.994,21.924-37.471,42.785-43.052c37.604-10.231,188.948-10.231,188.948-10.231s151.345,0,188.948,10.231
		c20.861,5.581,37.205,22.058,42.786,43.052c10.099,38.002,10.099,117.196,10.099,117.196S539.473,504.787,529.374,542.656z"/>
	<polygon fill="#FFFFFF" points="248.21,497.347 374.707,425.461 248.21,353.575 	"/>
</g>
</svg>
